<?xml version="1.0" encoding="utf-8"?>
<svg width="16" height="16" viewBox="0 0 16 16" fill="none" xmlns="http://www.w3.org/2000/svg">
  <path d="M 8 14.433 C 7.793 14.433 7.593 14.407 7.427 14.347 C 4.88 13.473 0.833 10.373 0.833 5.793 C 0.833 3.46 2.72 1.567 5.04 1.567 C 6.167 1.567 7.22 2.007 8 2.793 C 8.78 2.007 9.833 1.567 10.96 1.567 C 13.28 1.567 15.167 3.467 15.167 5.793 C 15.167 10.38 11.12 13.473 8.573 14.347 C 8.407 14.407 8.207 14.433 8 14.433 Z M 3.232 11.092 C 1.465 11.092 1.833 4.013 1.833 5.793 C 1.833 10.347 6.213 12.88 7.753 13.407 C 7.873 13.447 8.133 13.447 8.253 13.407 C 9.787 12.88 14.173 10.353 14.173 5.793 C 14.173 4.013 14.671 10.661 12.904 10.661 C 11.891 10.661 10.197 12.77 9.591 13.59 C 9.404 13.843 4.994 12.875 4.808 12.622 C 4.188 11.795 4.245 11.092 3.232 11.092 Z" style="fill: rgb(223, 70, 70);"/>
</svg>